<?xml version="1.0" encoding="utf-8"?>
<!-- Generator: Adobe Illustrator 22.0.0, SVG Export Plug-In . SVG Version: 6.00 Build 0)  -->
<svg version="1.1" id="Слой_1" xmlns="http://www.w3.org/2000/svg" xmlns:xlink="http://www.w3.org/1999/xlink" x="0px" y="0px"
	 viewBox="0 0 600 400" enable-background="new 0 0 600 400" xml:space="preserve">
<rect x="-10" y="-9" fill="#F3F3F3" width="620" height="418.1"/>
<g>
	<polygon fill="none" points="307.7,-301.1 303.7,-301.1 303.7,-301.1 	"/>
</g>
<g id="Слой_2_1_">
</g>
<g>
	<g>
		<path fill="#2B2B2B" d="M300,140.5c-67.5,0-122.2,54.7-122.2,122.2c0,41.3,20.5,77.9,51.9,100h-51.9v22.2h120l0,0
			c0.7,0,1.4,0,2.1,0c67.5,0,122.2-54.7,122.2-122.2S367.5,140.5,300,140.5z"/>
	</g>
	<circle fill="#F3F3F3" cx="300.1" cy="262.6" r="13.7"/>
	<circle fill="#F3F3F3" cx="300.1" cy="196.8" r="19.5"/>
	<circle fill="#F3F3F3" cx="300.1" cy="328.5" r="19.5"/>
	<circle fill="#F3F3F3" cx="358" cy="295.8" r="19.5"/>
	<circle fill="#F3F3F3" cx="358" cy="231.1" r="19.5"/>
	<circle fill="#F3F3F3" cx="242" cy="295.8" r="19.5"/>
	<circle fill="#F3F3F3" cx="242" cy="231.1" r="19.5"/>
</g>
<g>
	<path fill="#0072A2" d="M208.8,29.7V32h-49.1v36.8h44.4v2.1h-44.4v42.3h-2.3V29.7H208.8z"/>
	<path fill="#0072A2" d="M216,29.7v83.4h-2.3V29.7H216z"/>
	<path fill="#0072A2" d="M280.7,110.9v2.2h-51.4V29.7h2.5v81.2H280.7z"/>
	<path fill="#0072A2" d="M363.6,29.7v83.4h-2.3V39.5c0-0.8,0-1.9,0.1-3.5c0.1-1.5,0.1-2.7,0.1-3.5c-15.8,35.9-27.7,62.7-35.6,80.6
		H323l-35.6-80.6c0,0.8,0,2,0.1,3.5c0,1.6,0.1,2.7,0.1,3.5v73.6H285V29.7h3.5l35.9,80.8l36.1-80.8H363.6z"/>
	<path fill="#0072A2" d="M435.3,53.2h-2.5c-0.5-15.2-9.9-22.8-28.1-22.8c-7.9,0-14.1,1.7-18.5,5c-4.5,3.4-6.7,8-6.7,14.1
		c0,2,0.3,3.7,0.9,5.4c0.6,1.6,1.3,3,2,4.2c0.8,1.1,1.9,2.2,3.4,3.2c1.5,1,2.8,1.8,4,2.4c1.2,0.6,2.8,1.2,4.8,1.8
		c2,0.6,3.6,1.1,4.8,1.3c1.2,0.3,2.9,0.6,5.1,1.1c2.2,0.4,3.8,0.8,4.6,1c8.3,1.9,13.7,3.4,16.2,4.5c7.7,3.3,11.6,9.1,11.6,17.5
		c0,7.2-2.7,12.8-8.1,16.9s-12.8,6.2-22.3,6.2c-9.5,0-17.1-2.3-23-7c-5.9-4.6-8.8-11.6-8.8-20.8v-1.5h2.3v0.4c0,8.7,2.5,15.3,7.6,20
		c5.1,4.6,12.3,7,21.8,7c8.8,0,15.7-1.9,20.7-5.6c5-3.7,7.4-8.9,7.4-15.5c0-1.9-0.3-3.6-0.8-5.2c-0.5-1.6-1.1-3-1.8-4.1
		c-0.7-1.1-1.7-2.2-3-3.2c-1.3-1-2.5-1.7-3.5-2.3c-1-0.5-2.5-1.1-4.3-1.8c-1.9-0.6-3.3-1.1-4.4-1.3s-2.6-0.6-4.7-1.1
		c-2.1-0.5-3.6-0.8-4.5-1.1c-0.6-0.2-1.9-0.4-3.9-0.9c-2-0.4-3.4-0.8-4.3-1c-0.9-0.2-2.2-0.6-4-1.1c-1.8-0.5-3.2-1-4.2-1.3
		c-0.9-0.4-2.2-0.9-3.7-1.6c-1.5-0.7-2.7-1.4-3.5-2.1c-0.8-0.7-1.7-1.6-2.8-2.6c-1-1.1-1.8-2.1-2.3-3.3c-0.5-1.1-1-2.4-1.3-3.9
		c-0.4-1.4-0.6-3-0.6-4.7c0-6.6,2.5-11.7,7.4-15.5c4.9-3.8,11.6-5.7,20.2-5.7c9.1,0,16.4,2.1,21.9,6.2
		C432.1,38.3,435,44.7,435.3,53.2z"/>
</g>
</svg>
