<?xml version="1.0" encoding="utf-8"?>
<!-- Generator: Adobe Illustrator 22.0.0, SVG Export Plug-In . SVG Version: 6.00 Build 0)  -->
<svg version="1.1" xmlns="http://www.w3.org/2000/svg" xmlns:xlink="http://www.w3.org/1999/xlink" x="0px" y="0px"
	 viewBox="0 0 600 200" enable-background="new 0 0 600 200" xml:space="preserve">
<g id="Слой_1">
	<rect x="-10" y="-10" fill="#F3F3F3" width="620" height="220"/>
	<g>
		<g>
			<path fill="#E97E30" d="M138,3c-30.4,0-55,24.6-55,55c0,30.2,24.3,54.7,54.4,55l-16.2-26.6l-10.4-16.2l1.2-1.2l-1.2-32.4l9.3,4.6
				l18.5,1.2l13.9-2.3l9.3-2.3l6.9-4.6l24,19.2C189.9,24.6,166.5,3,138,3z"/>
		</g>
		<path fill="#E97E30" d="M193,58c0-1.9-0.1-3.8-0.3-5.7l-24-19.2l-6.9,4.6l-9.3,2.3l-13.9,2.3l-18.5-1.2l-9.3-4.6l1.2,32.4
			l-1.2,1.2l10.4,16.2l16.2,26.6c0.2,0,0.4,0,0.6,0C168.4,113,193,88.4,193,58z"/>
		<path opacity="0.45" fill="#7C7C7C" d="M193,58c0-1.9-0.1-3.8-0.3-5.7l-24-19.2l-6.9,4.6l-9.3,2.3l-13.9,2.3l-18.5-1.2l-9.3-4.6
			l1.2,32.4l-1.2,1.2l10.4,16.2l16.2,26.6c0.2,0,0.4,0,0.6,0C168.4,113,193,88.4,193,58z"/>
		<path fill="#FFFFFF" d="M165.9,33.1l-4.2,1.7c-4.9,2-10,3.1-15.2,3.5l-8.9,0.6c-0.1,0-0.2,0-0.3,0l-8.9-0.6
			c-5.2-0.3-10.4-1.5-15.2-3.5l-4.2-1.7c-1.3-0.5-2.7,0.5-2.6,1.9c0.6,9.6,1.3,19.1,1.9,28.7c0.2,2.3,0.6,4.7,1.4,6.9
			c7.8,21.8,24.9,23.7,27.6,23.9c0.1,0,0.2,0,0.3,0c2.6-0.2,19.7-2.1,27.6-23.9c0.8-2.2,1.3-4.5,1.4-6.9c0.6-9.6,1.3-19.1,1.9-28.7
			C168.6,33.6,167.2,32.6,165.9,33.1z M162.1,66c-0.1,2-0.5,4-1.2,5.8c-6.7,18.6-21.2,20.1-23.4,20.3c-0.1,0-0.1,0-0.2,0
			c-2.2-0.2-16.8-1.8-23.4-20.3c-0.7-1.9-1.1-3.8-1.2-5.8c-0.5-8.1-1.1-16.3-1.6-24.4c-0.1-1.2,1.1-2,2.2-1.6l3.6,1.5
			c4.1,1.7,8.5,2.7,13,3l7.5,0.5c0.1,0,0.1,0,0.2,0l7.5-0.5c4.4-0.3,8.8-1.3,13-3l3.6-1.5c1.1-0.4,2.3,0.4,2.2,1.6
			C163.2,49.7,162.7,57.9,162.1,66z"/>
		<path fill="#F8FFFF" d="M131.9,55.2c-1.7,0.7-3.5,1.4-5.2,2.1c-0.8,2.2-1.6,4.4-2.5,6.6c-0.9-2.2-1.8-4.4-2.8-6.6
			c-1.7-0.7-3.5-1.4-5.2-2.1c1.7-1,3.5-2.1,5.2-3.1c0.7-2.1,1.4-4.2,2.1-6.2c1,2.1,2.1,4.2,3.1,6.2
			C128.4,53.1,130.1,54.2,131.9,55.2z"/>
		<path fill="#FFFEF8" d="M159.6,55.2c-1.7,0.7-3.5,1.4-5.2,2.1c-0.8,2.2-1.6,4.4-2.5,6.6c-0.9-2.2-1.8-4.4-2.8-6.6
			c-1.7-0.7-3.5-1.4-5.2-2.1c1.7-1,3.5-2.1,5.2-3.1c0.7-2.1,1.4-4.2,2.1-6.2c1,2.1,2.1,4.2,3.1,6.2
			C156.2,53.1,157.9,54.2,159.6,55.2z"/>
		<circle fill="#F5FEFF" cx="138" cy="66.1" r="7.5"/>
		<path fill="#FFFEFD" d="M149,72.5c-0.4,0-0.7,0.1-1,0.3c-0.4,0.3-0.6,0.7-0.8,1.2c-0.5,1.2-0.8,2.6-1.6,3.5
			c-0.9,1-2.4,1.4-3.7,1.6c-2.8,0.4-5.6,0.4-8.4,0.1c-1.2-0.1-2.4-0.3-3.3-1c-1.5-1.1-1.9-2.9-2.6-4.5c-0.1-0.3-0.3-0.7-0.6-0.9
			c-0.7-0.6-2.2-0.5-2.6,0.4c-0.1,0.3-0.1,0.7-0.1,1c0.4,3.5,2.9,6.5,6.1,8c3.2,1.5,6.8,1.7,10.3,1.1c2.2-0.4,4.5-1.1,6.2-2.6
			c1.7-1.4,2.7-3.4,3.5-5.5c0.2-0.5,0.3-1,0.2-1.5c-0.1-0.5-0.5-1-1-1.2C149.4,72.5,149.2,72.5,149,72.5z"/>
	</g>
	<g>
		<linearGradient id="SVGID_1_" gradientUnits="userSpaceOnUse" x1="65.619" y1="87.0952" x2="65.619" y2="87.0952">
			<stop  offset="0" style="stop-color:#FFFFFF"/>
			<stop  offset="1" style="stop-color:#000000"/>
		</linearGradient>
		<path fill="url(#SVGID_1_)" d="M65.6,87.1"/>
		<path fill="#73411C" d="M81,69c-31.5,0-57,25.5-57,57c0,31.3,25.2,56.7,56.4,57l-16.8-27.6l-10.8-16.8l1.2-1.2l-1.2-33.6l9.6,4.8
			l19.2,1.2l14.4-2.4l9.6-2.4l7.2-4.8l24.9,19.9C134.8,91.4,110.5,69,81,69z"/>
		<path fill="#73411C" d="M138,126c0-2-0.1-3.9-0.3-5.9l-24.9-19.9l-7.2,4.8l-9.6,2.4l-14.4,2.4l-19.2-1.2l-9.6-4.8l1.2,33.6
			l-1.2,1.2l10.8,16.8L80.4,183c0.2,0,0.4,0,0.6,0C112.5,183,138,157.5,138,126z"/>
		<path fill="#73411C" d="M138,126c0-2-0.1-3.9-0.3-5.9l-24.9-19.9l-7.2,4.8l-9.6,2.4l-14.4,2.4l-19.2-1.2l-9.6-4.8l1.2,33.6
			l-1.2,1.2l10.8,16.8L80.4,183c0.2,0,0.4,0,0.6,0C112.5,183,138,157.5,138,126z"/>
		<path fill="#FFFFFF" d="M109.9,100.2l-4.4,1.8c-5,2-10.4,3.3-15.8,3.6l-9.2,0.6c-0.1,0-0.2,0-0.3,0l-9.2-0.6
			c-5.4-0.4-10.8-1.6-15.8-3.6l-4.4-1.8c-1.3-0.5-2.8,0.5-2.7,1.9c0.7,9.9,1.3,19.8,2,29.8c0.2,2.4,0.7,4.8,1.5,7.1
			c8.1,22.6,25.8,24.6,28.6,24.8c0.1,0,0.2,0,0.3,0c2.7-0.2,20.5-2.1,28.6-24.8c0.8-2.3,1.3-4.7,1.5-7.1c0.7-9.9,1.3-19.8,2-29.8
			C112.7,100.7,111.2,99.6,109.9,100.2z M106,134.3c-0.1,2.1-0.6,4.1-1.3,6c-6.9,19.2-22,20.9-24.3,21.1c-0.1,0-0.2,0-0.2,0
			c-2.3-0.2-17.4-1.8-24.3-21.1c-0.7-1.9-1.1-4-1.3-6c-0.6-8.4-1.1-16.9-1.7-25.3c-0.1-1.2,1.1-2.1,2.3-1.7l3.7,1.5
			c4.3,1.7,8.8,2.8,13.4,3.1l7.8,0.5c0.1,0,0.1,0,0.2,0l7.8-0.5c4.6-0.3,9.1-1.3,13.4-3.1l3.7-1.5c1.1-0.5,2.4,0.4,2.3,1.7
			C107.1,117.4,106.6,125.9,106,134.3z"/>
		<path fill="#FFFEFD" d="M92.4,152.6c-0.4,0-0.7-0.1-1-0.4c-0.4-0.3-0.6-0.8-0.8-1.2c-0.5-1.2-0.8-2.7-1.7-3.7
			c-1-1-2.4-1.4-3.8-1.6c-2.9-0.4-5.8-0.4-8.7-0.1c-1.2,0.1-2.5,0.3-3.5,1c-1.6,1.1-2,3-2.7,4.6c-0.1,0.3-0.3,0.7-0.6,0.9
			c-0.7,0.6-2.3,0.5-2.7-0.5c-0.1-0.3-0.1-0.7-0.1-1c0.4-3.6,3.1-6.7,6.3-8.3s7.1-1.7,10.7-1.1c2.3,0.4,4.7,1.2,6.5,2.7
			c1.7,1.5,2.8,3.6,3.6,5.7c0.2,0.5,0.3,1.1,0.2,1.6c-0.1,0.6-0.5,1-1.1,1.2C92.8,152.6,92.6,152.7,92.4,152.6z"/>
		
			<ellipse transform="matrix(0.1736 -0.9848 0.9848 0.1736 -66.4832 167.9304)" fill="#FFFFFF" cx="66.8" cy="123.6" rx="3.5" ry="8.6"/>
		
			<ellipse transform="matrix(0.9848 -0.1736 0.1736 0.9848 -20.032 18.1947)" fill="#FFFFFF" cx="94" cy="123.6" rx="8.6" ry="3.5"/>
	</g>
	<g>
		<path fill="#F9B2D2" d="M150.2,126.4l4.9-3.2l1.6-2.4v-6.5v-2.4h1.6l4.9,4l4,0.8l4-0.8l4.9-1.6l3.2-2.4l39.6,28.2
			c0-1.5-0.1-2.9-0.2-4.3C216.1,110,194.4,90,168,90c-28.2,0-51,22.8-51,51c0,28,22.5,50.7,50.5,51c0.2,0,0.4,0,0.5,0
			c4.8,0,9.4-0.7,13.8-1.9l-37.3-60.4L150.2,126.4z"/>
		<path fill="#F9B2D2" d="M219,141c0-0.3,0-0.6,0-0.9l-39.6-28.2l-3.2,2.4l-4.9,1.6l-4,0.8l-4-0.8l-4.9-4h-1.6v2.4v6.5l-1.6,2.4
			l-4.9,3.2l-5.7,3.2l37.3,60.4C203.3,184.1,219,164.4,219,141z"/>
		<path opacity="0.3" d="M219,141c0-0.3,0-0.6,0-0.9l-39.6-28.2l-3.2,2.4l-4.9,1.6l-4,0.8l-4-0.8l-4.9-4h-1.6v2.4v6.5l-1.6,2.4
			l-4.9,3.2l-5.7,3.2l37.3,60.4C203.3,184.1,219,164.4,219,141z"/>
		<path fill="#FFFEF8" d="M171,135.4l12,0.2l-8.2-11l4.4-13l-13,4.4l-11-8.2l0.2,13.7l-11.2,7.9l13.1,4.1l4.1,13.1l7.3-10.3l21,37.9
			l2.2-1.2L171,135.4z M168.2,132.8l-0.9,1.2l-5,7l-3-9.6l-9.6-3l8.2-5.8l-0.1-10.1l8.1,6l9.5-3.2l-3.2,9.5l6,8.1l-8.7-0.1
			L168.2,132.8z"/>
	</g>
	<g>
		<path fill="#0072A2" d="M309,98.3l0.1,28.5h-1.5V114l0.3-5c-1.4,5.8-4.2,10.5-8.6,13.9c-4.4,3.5-9.8,5.2-16.3,5.2
			c-8.5,0-15.4-2.8-20.6-8.5c-5.2-5.7-7.9-13.1-7.9-22.3c0-9.6,2.6-17.4,7.8-23.4c5.2-6,12-9,20.4-9c6.2,0,11.7,1.9,16.4,5.6
			c4.7,3.7,7.7,8.6,8.8,14.5h-1.6c-1.2-5.5-4-10-8.4-13.4c-4.4-3.4-9.5-5.1-15.2-5.1c-8,0-14.4,2.8-19.3,8.5
			c-4.8,5.6-7.3,13.1-7.3,22.4c0,8.3,2.4,15.2,7.2,20.8c4.8,5.6,11.3,8.4,19.4,8.4c7.4,0,13.3-2.3,17.9-7c4.6-4.6,6.9-10.7,6.9-18.1
			v-1.6h-23.7v-1.5H309z"/>
		<path fill="#0072A2" d="M358.1,66.3v1.6h-38.5v26.5h36.3V96h-36.3v29.2h38.9v1.6h-40.6V66.3H358.1z"/>
		<path fill="#0072A2" d="M409.4,66.3v60.5h-2L365.1,68c0.1,2.1,0.2,3.6,0.2,4.5v54.3h-1.8V66.3h2.3l42,58.5
			c-0.1-3.9-0.2-6.4-0.2-7.5v-51H409.4z"/>
		<path fill="#0072A2" d="M418.8,66.3h24c5.8,0,10.6,1.2,14.2,3.7c3.6,2.5,5.4,6.5,5.4,12.2c0,4.3-1.3,7.8-3.9,10.5
			c-2.6,2.7-6,4.3-10.2,4.8c7.3,0.8,11.4,4,12.5,9.3c0.3,1.5,0.6,4.9,0.8,10.2c0.1,5.3,0.6,8.6,1.4,9.9h-1.8
			c-0.3-0.1-0.6-1.2-0.8-3.1c-0.2-2-0.4-4.6-0.6-7.9c-0.2-3.3-0.3-5-0.3-5.2c-0.2-2.2-0.6-4.1-1.3-5.6c-0.7-1.5-1.6-2.7-2.5-3.6
			c-1-0.9-2.3-1.5-4-2c-1.7-0.5-3.3-0.8-4.8-0.9c-1.5-0.1-3.5-0.2-5.9-0.2h-20.3v28.5h-1.8V66.3z M420.6,67.8v28.9h19.9
			c13.4,0,20.1-4.8,20.1-14.5c0-2.8-0.5-5.2-1.5-7.2c-1-2-2.4-3.4-4.3-4.5c-1.8-1-3.8-1.7-5.8-2.1c-2-0.4-4.4-0.6-7-0.6H420.6z"/>
		<path fill="#0072A2" d="M510.7,66.3v1.6h-38.5v26.5h36.3V96h-36.3v29.2h38.9v1.6h-40.6V66.3H510.7z"/>
		<path fill="#0072A2" d="M558.9,83.3h-1.8c-0.4-11-7.2-16.6-20.4-16.6c-5.7,0-10.2,1.2-13.4,3.7c-3.2,2.4-4.8,5.8-4.8,10.2
			c0,1.4,0.2,2.7,0.6,3.9c0.4,1.2,0.9,2.2,1.5,3c0.6,0.8,1.4,1.6,2.5,2.3c1.1,0.7,2,1.3,2.9,1.7c0.8,0.4,2,0.9,3.5,1.3
			c1.5,0.5,2.6,0.8,3.5,1c0.8,0.2,2.1,0.5,3.7,0.8c1.6,0.3,2.7,0.6,3.4,0.7c6,1.4,9.9,2.4,11.7,3.2c5.6,2.4,8.4,6.6,8.4,12.7
			c0,5.2-2,9.3-5.9,12.3c-3.9,3-9.3,4.5-16.2,4.5s-12.4-1.7-16.7-5.1c-4.3-3.4-6.4-8.4-6.4-15.1v-1.1h1.7v0.3
			c0,6.3,1.8,11.1,5.5,14.5c3.7,3.4,9,5.1,15.8,5.1c6.4,0,11.4-1.3,15-4c3.6-2.7,5.4-6.4,5.4-11.3c0-1.4-0.2-2.6-0.6-3.8
			c-0.4-1.2-0.8-2.2-1.3-3c-0.5-0.8-1.2-1.6-2.2-2.3c-1-0.7-1.8-1.3-2.5-1.7c-0.7-0.4-1.8-0.8-3.1-1.3c-1.4-0.5-2.4-0.8-3.2-0.9
			c-0.8-0.2-1.9-0.4-3.4-0.8c-1.5-0.3-2.6-0.6-3.2-0.8c-0.5-0.1-1.4-0.3-2.8-0.6c-1.4-0.3-2.5-0.6-3.1-0.7c-0.6-0.2-1.6-0.4-2.9-0.8
			c-1.3-0.4-2.3-0.7-3-1c-0.7-0.3-1.6-0.7-2.7-1.2c-1.1-0.5-2-1-2.5-1.5c-0.6-0.5-1.3-1.1-2-1.9c-0.7-0.8-1.3-1.6-1.7-2.4
			c-0.4-0.8-0.7-1.8-1-2.8c-0.3-1-0.4-2.2-0.4-3.4c0-4.8,1.8-8.5,5.4-11.3c3.6-2.7,8.4-4.1,14.6-4.1c6.6,0,11.9,1.5,15.9,4.5
			C556.6,72.5,558.7,77.1,558.9,83.3z"/>
	</g>
</g>
<g id="Слой_2">
	<g>
	</g>
	<g>
	</g>
	<g>
	</g>
	<g>
	</g>
	<g>
	</g>
	<g>
	</g>
	<g>
	</g>
	<g>
	</g>
	<g>
	</g>
	<g>
	</g>
	<g>
	</g>
	<g>
	</g>
	<g>
	</g>
	<g>
	</g>
	<g>
	</g>
</g>
</svg>
