<?xml version="1.0" encoding="utf-8"?>
<!-- Generator: Adobe Illustrator 22.0.0, SVG Export Plug-In . SVG Version: 6.00 Build 0)  -->
<svg version="1.1" id="Слой_1" xmlns="http://www.w3.org/2000/svg" xmlns:xlink="http://www.w3.org/1999/xlink" x="0px" y="0px"
	 viewBox="0 0 600 400" enable-background="new 0 0 600 400" xml:space="preserve">
<rect x="-10" y="-9" fill="#F3F3F3" width="620" height="418.1"/>
<g>
	<polygon fill="none" points="307.7,-301.1 303.7,-301.1 303.7,-301.1 	"/>
</g>
<g id="Слой_2_1_">
</g>
<g>
	<g>
		<path fill="#5B362E" d="M168.8,30.6c25.9,0,52.5,12.3,55.7,74.6c3.2,62.3-5.3,46.6,3.5,84.4l-120.1,2.1c0,0-2.5-110.7,16.1-139.7
			C142.4,22.9,168.8,30.6,168.8,30.6z"/>
		<path fill="#FF7BAB" d="M76.9,237.1v-24.1c0-17.4,11.9-31.5,26.6-31.5h128.9c14.7,0,26.6,14.1,26.6,31.5v24.1H76.9z"/>
		<path fill="#E3B271" d="M147.1,199.7c0,0,1.1,15.5,20.9,15.5c19.7,0,20.9-15.5,20.9-15.5V155h-41.7V199.7z"/>
		<g>
			<path fill="#F5C586" d="M128,125.8c0,22.6,18.3,40.8,40.8,40.8l0,0c22.6,0,40.8-18.3,40.8-40.8V80.1c0-22.6-18.3-40.8-40.8-40.8
				l0,0c-22.6,0-40.8,18.3-40.8,40.8V125.8z"/>
		</g>
		<path fill="#5B362E" d="M209.7,91.2h-61.6l-2.8-24.2v24.2H128c0,0-5.9-26.3,6-38.9s33.9-16.1,33.9-16.1s24.6,1.1,35.8,17.9
			C214.9,70.9,209.7,91.2,209.7,91.2z"/>
	</g>
	<path opacity="0.7" fill="#5B362E" d="M123.9,52c-15.1,23.7-16.3,101.6-16.2,129.6h39.4v-21.3c-11.4-7.2-19-20-19-34.5V91.2h17.2
		V67.1l2.8,24.2h19.3v-52v-2.9v-6C161.8,29.2,139.9,26.9,123.9,52z"/>
	<path opacity="0.7" fill="#FF7BAB" d="M147.1,199.7v-18.2h-39.4h-4.2c-14.7,0-26.6,14.1-26.6,31.5v24.1h90.5v-21.9
		C148.2,214.9,147.1,199.7,147.1,199.7z"/>
	<path opacity="0.7" fill="#E3B271" d="M147.1,181.6v18.2c0,0,1.1,15.2,20.3,15.4v-24.5v-9.1v-15c-7.5-0.3-14.4-2.5-20.3-6.3V181.6z
		"/>
	<path opacity="0.7" fill="#F5C586" d="M145.2,67.1v24.2H128v34.6c0,14.5,7.6,27.3,19,34.5c5.9,3.7,12.9,6,20.3,6.3V155V91.2h-19.3
		L145.2,67.1z"/>
</g>
<g>
	<g>
		<g>
			<path fill="#1E191D" d="M375.8,64.3c-0.5,0-0.9,0-1.4-0.1c0,0.4,0.1,0.8,0.1,1.2c0,5.2-4.2,9.3-9.3,9.3c-5.2,0-9.3-4.2-9.3-9.3
				c0-4.4,3.1-8.2,7.3-9.1c-0.9-1.8-1.4-3.9-1.4-6c0-7.7,6.3-14,14-14c1.5,0,2.9,0.2,4.2,0.7c1.6-5.1,6.3-8.8,12-8.8
				c1.4,0,2.8,0.3,4,0.7c1.6-3.2,5-5.4,8.8-5.4c4.1,0,7.6,2.5,9.1,6.1c1-0.5,2-0.9,3.1-1.1c1.7-3,4.9-4.9,8.6-4.9
				c5,0,9.1,3.6,9.9,8.4c1.9-2.3,4.8-3.7,8-3.7c2.6,0,5.1,1,6.9,2.6c1.4-0.4,2.8-0.6,4.3-0.6c3.5,0,6.7,1,9.4,2.8
				c2-1.2,4.2-1.9,6.7-1.9c7.2,0,13,5.8,13,13c0,1.7-0.3,3.3-0.9,4.8c2,1.8,3.2,4.4,3.2,7.3c0,0.4,0,0.9-0.1,1.3
				c5.3,1.4,9.1,6.2,9.1,11.9c0,2.9-1,5.6-2.7,7.8c3.6,1.8,6.1,5.5,6.1,9.7c0,4.9-3.3,9.1-7.8,10.4c0.8,1.5,1.3,3.2,1.3,5.1
				c0,1.9-0.5,3.7-1.4,5.2c3.9,1.8,6.6,5.7,6.6,10.2c0,6.2-5,11.2-11.2,11.2c-1,0-2-0.2-3-0.4c0.9,1.8,1.4,3.8,1.4,6
				c0,6.4-4.4,11.8-10.4,13.3c-1.8,2-4.4,3.3-7.3,3.3c-5.4,0-9.7-4.4-9.7-9.7c0-1.1,0.2-2.1,0.5-3.1c-0.3-1.2-0.5-2.4-0.5-3.7
				c0-7.6,6.1-13.7,13.7-13.7c0,0,0.1,0,0.1,0c-0.1-0.4-0.1-0.9-0.1-1.3c0-3.5,2.4-6.5,5.6-7.4c0.1-0.1,0.1-0.2,0.2-0.3
				c-3.4-1.8-5.8-5.3-5.8-9.5c0-3,1.2-5.7,3.2-7.6c-2.2-2-3.5-4.8-3.5-8c0-3.3,1.5-6.3,3.9-8.3c-2.4-2.3-3.9-5.5-3.9-9
				c0-1.7,0.3-3.2,0.9-4.7c-1.7-1-3.1-2.4-4-4.2c-2.7,3.4-6.9,5.5-11.5,5.5c-2.2,0-4.3-0.5-6.2-1.3c-7.1-2.2-12.2-8.6-12.5-16.4
				c-2.8-1.3-4.8-4-5-7.3c0,0,0,0,0,0c-0.2,6.7-5.7,12.1-12.5,12.1c-4.8,0-8.9-2.7-11-6.6c-1.3,3.8-4.9,6.6-9.2,6.6
				c-1.2,0-2.4-0.2-3.5-0.7c-1.3,0.4-2.6,0.7-4,0.7c-0.8,0-1.7-0.1-2.4-0.2C388.4,59.4,382.7,64.3,375.8,64.3z"/>
			<path fill="#1E191D" d="M353.5,100.7c0-4.7,3.5-8.5,8-9c1.7-2.9,4.9-4.9,8.5-4.9c5.4,0,9.9,4.4,9.9,9.9c0,3.2-1.5,6-3.9,7.8
				c1.2,1.2,1.9,2.9,1.9,4.7c0,0.1,0,0.3,0,0.4c4.8,1.3,8.3,5.6,8.3,10.8c0,4.1-2.2,7.7-5.5,9.6c0.9,1.2,1.4,2.7,1.4,4.3
				c0,1-0.2,2-0.6,2.9c3.5,0.4,6.2,3.3,6.2,6.9c0,3.8-3.1,7-7,7c-3.8,0-7-3.1-7-7c0,0,0-0.1,0-0.1c-1.2,0.5-2.5,0.8-3.8,0.8
				c-5.5,0-9.9-4.4-9.9-9.9c0-3.8,2.2-7.1,5.3-8.8c-1-1.7-1.5-3.6-1.5-5.6c0,0,0,0,0,0c-3.4-1.1-5.8-4.3-5.8-8.1
				c0-1.2,0.3-2.3,0.7-3.4C355.6,107.5,353.5,104.3,353.5,100.7z"/>
		</g>
		<path fill="#645779" d="M333.3,237.1v-24.1c0-17.4,11.9-31.5,26.6-31.5h128.9c14.7,0,26.6,14.1,26.6,31.5v24.1H333.3z"/>
		<g>
			<path fill="#E3B271" d="M460.9,118.6c0,4.3,3.5,7.8,7.8,7.8l0,0c4.3,0,7.8-3.5,7.8-7.8v-14.9c0-4.3-3.5-7.8-7.8-7.8l0,0
				c-4.3,0-7.8,3.5-7.8,7.8V118.6z"/>
			<path fill="#E3B271" d="M372,118.6c0,4.3,3.5,7.8,7.8,7.8l0,0c4.3,0,7.8-3.5,7.8-7.8v-14.9c0-4.3-3.5-7.8-7.8-7.8l0,0
				c-4.3,0-7.8,3.5-7.8,7.8V118.6z"/>
		</g>
		<path fill="#E3B271" d="M391.2,189.9c0,0-15.3,24.9,33.1,24.9s33.1-24.9,33.1-24.9v-44.3h-66.2V189.9z"/>
		<path fill="#F5C586" d="M380.1,143.2c0,17.4,14.1,31.5,31.5,31.5h25.3c17.4,0,31.5-14.1,31.5-31.5V80.5
			c0-17.4-14.1-31.5-31.5-31.5h-25.3c-17.4,0-31.5,14.1-31.5,31.5V143.2z"/>
		<path fill="#1E191D" d="M366.1,66.5c-0.1-1-0.2-1.9-0.2-2.9c0-10.8,8.7-19.5,19.5-19.5c2.6,0,5.1,0.5,7.4,1.5
			c3.5-3.2,8.1-5.2,13.3-5.2c3.3,0,6.4,0.8,9.2,2.3c2.7-1.5,5.8-2.3,9.2-2.3c3,0,5.8,0.7,8.3,1.9c1.2-0.2,2.4-0.4,3.7-0.4
			c8.4,0,15.5,5.3,18.2,12.7c3.1-2,6.7-3.2,10.7-3.2c9.1,0,16.8,6.3,18.9,14.7c4.1,3.6,6.7,8.8,6.7,14.7c0,10.8-8.7,19.5-19.5,19.5
			c-6.1,0-11.5-2.8-15-7.1c-3.5,3.5-8.3,5.6-13.6,5.6c-10.8,0-19.5-8.7-19.5-19.5c0,0,0,0,0-0.1c-2.9-0.2-5.6-0.9-8.1-2.2
			c-2.5,1.3-5.3,2.1-8.3,2.2c-1.4,7.8-7.3,13.9-15,15.6c-3.6,4.7-9.2,7.7-15.5,7.7c-10.8,0-19.5-8.7-19.5-19.5
			C356.9,76.1,360.6,69.9,366.1,66.5z"/>
	</g>
	<path opacity="0.7" fill="#1E191D" d="M417.1,28.4c-1.1,0.2-2.1,0.6-3.1,1.1c-1.5-3.6-5-6.1-9.1-6.1c-3.8,0-7.1,2.2-8.8,5.4
		c-1.3-0.4-2.6-0.7-4-0.7c-5.6,0-10.4,3.7-12,8.8c-1.3-0.4-2.8-0.7-4.2-0.7c-7.7,0-14,6.3-14,14c0,2.2,0.5,4.2,1.4,6
		c-4.2,0.9-7.3,4.6-7.3,9.1c0,3.1,1.5,5.8,3.8,7.5c-1.8,2.9-2.8,6.4-2.8,10.1c0,3.3,0.8,6.5,2.3,9.2c-3.4,1.3-5.7,4.6-5.7,8.4
		c0,3.6,2.1,6.8,5.2,8.2c-0.5,1-0.7,2.2-0.7,3.4c0,3.8,2.4,6.9,5.8,8.1c0,0,0,0,0,0c0,2.1,0.6,4,1.5,5.6c-3.1,1.7-5.3,5-5.3,8.8
		c0,5.5,4.4,9.9,9.9,9.9c1.3,0,2.6-0.3,3.8-0.8c0,0.1,0,0.1,0,0.1c0,3.8,3.1,7,7,7c0.1,0,0.3,0,0.4,0c-0.7-2.5-1-5.2-1-7.9v-16.8
		c-0.1,0-0.2,0-0.3,0c-4.3,0-7.8-3.5-7.8-7.8v-14.9c0-0.5,0.1-1.1,0.2-1.6c1.3,0.3,2.7,0.5,4.2,0.5c1.3,0,2.6-0.1,3.8-0.4
		c4.7-0.9,8.9-3.6,11.7-7.3c7.7-1.7,13.6-7.8,15-15.6c3-0.1,5.8-0.9,8.3-2.2c2.3,1.2,4.9,2,7.6,2.2V52.8V49v-8.6V23.9
		C420.3,24.7,418.4,26.3,417.1,28.4z"/>
	<path opacity="0.7" fill="#645779" d="M391.2,189.9v-8.3h-31.3c-14.7,0-26.6,14.1-26.6,31.5v24.1h89.4v-22.3
		C376.3,214.3,391.2,189.9,391.2,189.9z"/>
	<path opacity="0.7" fill="#E3B271" d="M380.1,102.1c-1.2,0.2-2.5,0.4-3.8,0.4c-1.4,0-2.8-0.2-4.2-0.5c-0.1,0.5-0.2,1-0.2,1.6v14.9
		c0,4.3,3.5,7.8,7.8,7.8c0.1,0,0.2,0,0.3,0V102.1z"/>
	<path opacity="0.7" fill="#E3B271" d="M391.2,167.1v14.5v8.3c0,0-14.9,24.3,31.5,24.9v-33.2v-6.9h-11.1
		C403.8,174.7,396.7,171.8,391.2,167.1z"/>
	<path opacity="0.7" fill="#F5C586" d="M406.8,79.2c-1.4,7.8-7.3,13.9-15,15.6c-2.8,3.7-7,6.4-11.7,7.3v24.2v16.8
		c0,2.7,0.3,5.4,1,7.9c1.6,6.3,5.2,11.9,10,16c5.5,4.7,12.6,7.6,20.5,7.6h11.1v-29V79.1c-2.7-0.2-5.3-1-7.6-2.2
		C412.6,78.3,409.8,79.1,406.8,79.2z"/>
</g>
<g>
	<g>
		<g>
			<path fill="#E3B271" d="M324,141.4c0,4.6,3.8,8.4,8.4,8.4l0,0c4.6,0,8.4-3.8,8.4-8.4v-16c0-4.6-3.8-8.4-8.4-8.4l0,0
				c-4.6,0-8.4,3.8-8.4,8.4V141.4z"/>
			<path fill="#E3B271" d="M235.9,141.4c0,4.6,3.8,8.4,8.4,8.4l0,0c4.6,0,8.4-3.8,8.4-8.4v-16c0-4.6-3.8-8.4-8.4-8.4l0,0
				c-4.6,0-8.4,3.8-8.4,8.4V141.4z"/>
		</g>
		<path fill="#F1F1F1" d="M190.5,269v-25.9c0-18.7,12.8-33.9,28.6-33.9h138.6c15.8,0,28.6,15.2,28.6,33.9V269H190.5z"/>
		<path fill="#001328" d="M190.5,269v-25.9c0-18.7,12.8-33.9,28.6-33.9h24.7c7.5,12.2,5.6,41.7,44.6,41.7
			c33.2,0,37.2-30.6,46.3-41.7h23c15.8,0,28.6,15.2,28.6,33.9V269H190.5z"/>
		<path fill="#E3B271" d="M247.8,218.2c0,0,13.3,13.3,40.6,13.3s40.6-13.3,40.6-13.3v-47.7h-81.2V218.2z"/>
		<path fill="#F5C586" d="M244.4,158c0,24.3,19.7,43.9,43.9,43.9l0,0c24.3,0,43.9-19.7,43.9-43.9v-49.2c0-24.3-19.7-43.9-43.9-43.9
			l0,0c-24.3,0-43.9,19.7-43.9,43.9V158z"/>
		<path fill="#5F5C57" d="M258.9,190.6c0,0,5,11.3,29.5,11.3c24.5,0,29.5-11.3,29.5-11.3c0-37.7-29.5-31.5-29.5-31.5
			S258.9,152.9,258.9,190.6z M273.7,172.5c0-12.1,14.7-7.4,14.7-7.4s14.7-4.8,14.7,7.4c0,12.1-14.7,10.9-14.7,10.9
			S273.7,184.6,273.7,172.5z"/>
	</g>
	<path opacity="0.7" fill="#E3B271" d="M244.3,117c-4.6,0-8.4,3.8-8.4,8.4v16c0,4.6,3.8,8.4,8.4,8.4c0,0,0.1,0,0.1,0L244.3,117
		C244.4,117,244.4,117,244.3,117z"/>
	<path opacity="0.7" fill="#F1F1F1" d="M247.8,209.3h-4c7.4,12.1,5.7,41,43.4,41.7v-19.4c-26.4-0.4-39.3-13.3-39.3-13.3V209.3z"/>
	<path opacity="0.7" fill="#001328" d="M243.8,209.3h-24.7c-15.8,0-28.6,15.2-28.6,33.9V269h96.6v-18.1
		C249.5,250.3,251.2,221.4,243.8,209.3z"/>
	<path opacity="0.7" fill="#E3B271" d="M258.9,190.6C258.9,190.6,258.9,190.6,258.9,190.6c-4.8-4.3-8.6-9.7-11.1-15.7v34.4v9
		c0,0,12.9,12.9,39.3,13.3v-22.2V202C263.8,201.6,258.9,190.6,258.9,190.6z"/>
	<path opacity="0.7" fill="#F5C586" d="M273.7,172.5c0,10,9.9,10.9,13.5,10.9v-12.8v-5.8C283.6,164,273.7,162.5,273.7,172.5z"/>
	<path opacity="0.7" fill="#F5C586" d="M244.4,108.8v8.2v32.9v8.2c0,6,1.2,11.7,3.4,16.9c2.5,6,6.3,11.4,11.1,15.7
		c0-33,22.6-32.3,28.2-31.6V64.9C263.4,65.6,244.4,85,244.4,108.8z"/>
	<path opacity="0.7" fill="#5F5C57" d="M258.9,190.6C258.9,190.6,258.9,190.6,258.9,190.6c0,0,4.8,11,28.2,11.3v0v-18.6
		c-3.6,0-13.5-0.9-13.5-10.9c0-10,9.9-8.5,13.5-7.7V159C281.5,158.3,258.9,157.6,258.9,190.6z"/>
</g>
<g>
	<path fill="#0072A2" d="M165.9,313.8h24c4.9,0,8.8,1.3,11.9,3.8c3.1,2.6,4.6,6.4,4.6,11.6c0,4.7-1.5,8.5-4.6,11.3
		c-3.1,2.8-7.2,4.2-12.4,4.2h-21.8v26h-1.6V313.8z M167.5,315.3v27.9H189c4.6,0,8.4-1.2,11.3-3.5c3-2.3,4.4-5.8,4.4-10.4
		c0-9.3-5.3-14-15.9-14H167.5z"/>
	<path fill="#0072A2" d="M249.3,313.8v1.5h-36.2v25h34.2v1.5h-34.2v27.4h36.6v1.5h-38.2v-57H249.3z"/>
	<path fill="#0072A2" d="M278.7,312.3c7.9,0,14.4,2.8,19.4,8.5c5,5.7,7.5,13,7.5,21.9c0,8.7-2.5,15.8-7.4,21.2
		c-5,5.4-11.4,8.2-19.4,8.2c-7.8,0-14.2-2.8-19.1-8.3c-4.9-5.5-7.3-12.7-7.3-21.6c0-8.8,2.5-16,7.4-21.6
		C264.6,315.1,270.9,312.3,278.7,312.3z M278.8,313.9c-7.3,0-13.2,2.6-17.8,7.9c-4.6,5.3-6.9,12.1-6.9,20.3c0,8.4,2.3,15.3,6.8,20.6
		c4.6,5.3,10.5,7.9,17.7,7.9c7.5,0,13.5-2.6,18.2-7.8c4.6-5.2,7-11.9,7-20.2c0-8.5-2.3-15.4-7-20.8
		C292.2,316.5,286.2,313.9,278.8,313.9z"/>
	<path fill="#0072A2" d="M312.5,313.8h24c4.9,0,8.8,1.3,11.9,3.8c3.1,2.6,4.6,6.4,4.6,11.6c0,4.7-1.5,8.5-4.6,11.3
		c-3.1,2.8-7.2,4.2-12.4,4.2h-21.8v26h-1.6V313.8z M314.1,315.3v27.9h21.4c4.6,0,8.4-1.2,11.3-3.5c3-2.3,4.4-5.8,4.4-10.4
		c0-9.3-5.3-14-15.9-14H314.1z"/>
	<path fill="#0072A2" d="M393.5,369.2v1.5h-35.1v-57h1.7v55.4H393.5z"/>
	<path fill="#0072A2" d="M434.3,313.8v1.5h-36.2v25h34.2v1.5h-34.2v27.4h36.6v1.5h-38.2v-57H434.3z"/>
</g>
</svg>
